<svg width="535" height="622" viewBox="0 0 535 622" fill="none" xmlns="http://www.w3.org/2000/svg">
<path d="M241.675 1.95243C207.942 7.55243 174.475 28.2191 156.209 54.7524C138.742 79.9524 132.075 100.752 130.875 132.752L130.075 153.019L92.4752 153.419L54.8752 153.819L49.2752 157.552C43.1419 161.686 39.1419 167.286 37.2752 174.486C36.6085 177.019 35.0085 189.019 33.9419 201.152C32.7419 213.286 30.3419 237.819 28.4752 255.819C26.7419 273.819 23.4085 307.019 21.1419 329.819C19.0085 352.486 16.6085 376.486 15.8085 383.152C15.1419 389.686 13.0085 410.752 11.1419 429.819C9.27519 448.886 6.20853 479.419 4.34186 497.819C2.60853 516.086 0.741859 539.552 0.341859 549.819C-0.324807 566.486 -0.191474 569.286 2.34186 576.352C9.94186 597.686 26.7419 612.619 49.9419 618.486C59.5419 621.019 64.7419 621.152 135.409 621.152C182.875 621.152 210.475 620.619 210.475 619.819C210.475 618.619 208.875 616.752 188.609 593.286L178.075 581.286L117.942 580.886L57.8085 580.486L52.7419 577.419C43.9419 571.819 40.6085 566.086 40.3419 555.952C40.2085 551.152 40.6085 542.619 41.2752 537.152C41.8085 531.686 43.2752 516.886 44.4752 504.486C45.6752 491.952 47.4085 472.752 48.4752 461.819C49.5419 450.752 52.8752 415.952 55.8085 384.486C58.7419 352.886 63.5419 303.152 66.4752 273.819C69.4085 244.486 72.0752 216.619 72.4752 211.819C72.8752 207.019 73.5419 200.886 73.9419 198.086L74.7419 193.152H102.475H130.209L130.742 219.419C131.142 249.152 132.075 252.486 141.142 257.419C147.809 261.019 159.809 260.219 164.609 255.686C171.409 249.419 171.809 247.152 171.809 219.152V193.152H266.875H361.809V215.552C361.809 245.152 362.342 248.219 368.075 254.086C372.075 258.086 373.809 258.752 380.609 259.419C387.409 259.952 389.142 259.686 393.142 256.886C401.675 251.152 402.475 247.686 402.475 218.752V193.152H429.009H455.409L456.209 200.752C459.409 230.219 464.742 280.352 469.809 326.486C473.009 356.219 477.809 400.619 480.475 425.152C483.142 449.686 487.009 486.352 489.142 506.486C491.275 526.619 493.542 546.619 493.942 550.752C495.009 560.486 493.142 566.086 486.742 572.219C478.075 580.619 479.542 580.486 413.142 581.152L352.609 581.819L336.209 600.352C327.142 610.619 319.809 619.552 319.809 620.086C319.809 620.752 355.675 621.019 399.542 620.886C477.675 620.486 479.275 620.352 487.942 617.419C511.409 609.552 529.009 591.286 533.409 570.086C535.142 562.219 533.809 548.219 521.142 429.819C514.209 366.619 504.075 269.952 499.142 222.486C496.475 197.152 493.809 174.486 493.009 172.086C490.875 165.552 485.409 159.819 477.809 156.352C471.409 153.286 470.075 153.152 437.009 153.152H402.875L402.075 134.752C400.742 101.419 393.942 80.3524 375.942 53.8191C367.675 41.6858 344.209 22.0858 328.475 14.2191C303.275 1.55243 271.009 -2.9809 241.675 1.95243ZM289.142 43.4191C300.075 46.0858 307.142 49.1524 316.742 55.2858C332.475 65.2858 347.409 82.7524 354.475 99.1524C357.942 107.286 360.742 122.886 361.809 139.419L362.609 153.152H267.009H171.409L172.209 134.086C173.009 112.619 175.542 102.352 183.542 87.8191C189.142 77.4191 202.875 62.8858 213.409 55.8191C234.609 41.6858 263.142 37.0191 289.142 43.4191Z" fill="#6446C5"/>
<path d="M245.808 271.019C193.275 279.819 149.542 318.886 135.542 369.819C133.142 378.752 132.608 383.952 132.608 402.486C132.608 422.352 132.875 425.686 136.208 437.819C146.475 474.886 172.342 513.152 240.875 592.886C262.208 617.552 265.675 621.019 267.542 619.552C270.742 616.886 329.408 548.219 345.275 528.486C362.075 507.552 382.342 477.419 388.475 464.486C398.875 442.219 403.408 418.219 402.075 393.286C400.342 361.152 388.075 334.752 363.275 309.686C345.808 292.086 325.942 280.619 299.808 272.886C288.342 269.552 260.342 268.619 245.808 271.019ZM284.475 332.486C296.742 335.686 306.475 341.286 315.808 350.486C329.675 364.352 335.808 378.886 335.808 397.952C335.808 417.952 331.275 430.486 319.142 443.552C309.008 454.619 302.342 459.019 289.808 463.152C272.208 469.152 252.208 467.686 235.142 459.152C205.542 444.486 191.942 415.686 199.008 382.486C203.675 360.752 221.008 341.686 243.142 333.819C254.208 329.952 272.475 329.286 284.475 332.486Z" fill="#A58DF2"/>
</svg>
